<?xml version="1.0" encoding="UTF-8" standalone="no"?>
<svg
   xmlns:dc="http://purl.org/dc/elements/1.1/"
   xmlns:cc="http://creativecommons.org/ns#"
   xmlns:rdf="http://www.w3.org/1999/02/22-rdf-syntax-ns#"
   xmlns:svg="http://www.w3.org/2000/svg"
   xmlns="http://www.w3.org/2000/svg"
   viewBox="0 0 320 40"
   height="40"
   width="320"
   xml:space="preserve"
   version="1.1"
   id="svg4505"><metadata
     id="metadata4511"><rdf:RDF><cc:Work
         rdf:about=""><dc:format>image/svg+xml</dc:format><dc:type
           rdf:resource="http://purl.org/dc/dcmitype/StillImage" /><dc:title></dc:title></cc:Work></rdf:RDF></metadata><defs
     id="defs4509"><clipPath
       id="clipPath4521"
       clipPathUnits="userSpaceOnUse"><path
         id="path4523"
         d="m 130,50 2240,0 0,230 -2240,0 0,-230 z" /></clipPath></defs><g
     transform="matrix(1.25,0,0,-1.25,0,40)"
     id="g4513"><g
       transform="scale(0.1,0.1)"
       id="g4515"><g
         id="g4517"><g
           clip-path="url(#clipPath4521)"
           id="g4519"><path
             id="path4525"
             style="fill:#000000;fill-opacity:1;fill-rule:nonzero;stroke:none"
             d="m 214.879,183.48 c -0.43,-8.128 -3.668,-12.191 -9.68,-12.191 -5.629,0 -8.437,3.199 -8.437,9.691 0,1.25 -0.121,3.469 -0.313,6.719 l -0.32,8.281 c -10.309,-1.25 -18.551,-4.179 -24.68,-8.75 -5.859,-4.179 -10.629,-10.55 -14.379,-19.07 l 0.16,-53.59 c 0,-6.558 -3.25,-9.84 -9.691,-9.84 -5.738,0 -8.59,3.282 -8.59,9.84 l 0,68.59 c 0,2.192 0.031,5.391 0.153,9.692 0.199,4.257 0.308,7.5 0.308,9.687 0,6.563 2.86,9.84 8.602,9.84 6.328,0 9.566,-5.43 9.687,-16.25 12.5,12.07 26.321,18.133 41.563,18.133 5.308,0 9.258,-1.992 11.867,-5.942 2.582,-3.98 3.91,-9.961 3.91,-17.968 0,-3.442 -0.078,-5.743 -0.16,-6.872 z" /><path
             id="path4527"
             style="fill:#000000;fill-opacity:1;fill-rule:nonzero;stroke:none"
             d="m 310.859,104.879 c -1.25,0 -3.519,1.41 -6.718,4.223 -2.93,2.699 -5.121,5.078 -6.563,7.187 -6.25,-3.437 -11.797,-5.98 -16.558,-7.66 -4.692,-1.75 -8.68,-2.649 -11.879,-2.649 -15.231,0 -26.332,4.329 -33.282,12.969 -6.558,8 -9.839,20.352 -9.839,37.031 0,15.821 5.39,29.29 16.25,40.469 10.82,11.25 23.75,16.871 38.75,16.871 5.699,0 12.07,-1.519 19.058,-4.531 8.832,-3.668 13.281,-8.051 13.281,-13.129 0,-1.789 -0.629,-3.359 -1.879,-4.68 -0.621,-2.5 -1.171,-6.57 -1.558,-12.191 -0.313,-5.629 -0.543,-12.891 -0.621,-21.719 -0.121,-8.121 0.469,-14.531 1.719,-19.218 0.621,-2.813 2.652,-8.551 6.089,-17.192 0.391,-1.172 1.129,-2.89 2.192,-5.148 l 0.621,-1.723 c 0,-2.578 -0.942,-4.73 -2.813,-6.41 -1.8,-1.641 -3.871,-2.5 -6.25,-2.5 z m -20.308,67.82 c 0,2.813 0.148,5.821 0.469,9.063 0.39,3.316 0.968,6.867 1.71,10.617 -2.421,1.25 -4.492,2.109 -6.25,2.66 -1.679,0.621 -3.039,0.941 -4.058,0.941 -10.121,0 -18.871,-4.14 -26.25,-12.351 -7.301,-8.238 -10.942,-17.731 -10.942,-28.43 0,-10.75 1.879,-18.75 5.629,-24.07 3.832,-5.309 9.532,-7.969 17.032,-7.969 6.25,0 11.558,1.141 15.937,3.442 2.262,1.128 5.551,3.597 9.844,7.347 -2.113,17.262 -3.121,30.192 -3.121,38.75 z" /><path
             id="path4529"
             style="fill:#000000;fill-opacity:1;fill-rule:nonzero;stroke:none"
             d="m 368.551,234.879 c -3.121,0 -5.852,1.101 -8.121,3.281 -2.192,2.192 -3.282,4.852 -3.282,7.969 0,3.133 1.09,5.781 3.282,7.973 2.269,2.187 5,3.277 8.121,3.277 3.129,0 5.828,-1.09 8.129,-3.277 2.269,-2.192 3.441,-4.84 3.441,-7.973 0,-3.117 -1.172,-5.777 -3.441,-7.969 -2.301,-2.18 -5,-3.281 -8.129,-3.281 z M 367.77,88.6289 c 0.082,7.6211 -1.008,27.0701 -3.282,58.4411 l -3.437,53.91 c 0,3.2 0.937,6.09 2.82,8.59 1.867,2.578 4.25,3.91 7.18,3.91 2.187,0 4.379,-0.859 6.57,-2.5 2.18,-1.57 3.359,-3.25 3.59,-5 l 3.129,-56.25 2.648,-60.1597 c 0,-9.0586 -2.726,-17.2305 -8.117,-24.5312 -5.859,-8.0078 -12.973,-12.0274 -21.41,-12.0274 -13.981,0 -25.699,10.7774 -35.16,32.3399 -0.699,1.7968 -1.09,3.3593 -1.09,4.6875 0,2.6211 1.019,4.8398 2.969,6.7226 2.07,1.8672 4.41,2.8086 7.031,2.8086 3.828,0 7.848,-4.2187 12.027,-12.6601 1.024,-2.2618 2.852,-5.5 5.473,-9.6797 2.5,-3.211 5.391,-4.8516 8.75,-4.8516 2.891,0 5.348,2.1524 7.34,6.4102 1.57,3.3593 2.539,6.6406 2.969,9.8398 z" /><path
             id="path4531"
             style="fill:#000000;fill-opacity:1;fill-rule:nonzero;stroke:none"
             d="m 493.281,104.879 c -1.25,0 -3.511,1.41 -6.722,4.223 -2.93,2.699 -5.11,5.078 -6.559,7.187 -6.25,-3.437 -11.801,-5.98 -16.559,-7.66 -4.691,-1.75 -8.671,-2.649 -11.882,-2.649 -15.231,0 -26.329,4.329 -33.278,12.969 -6.562,8 -9.84,20.352 -9.84,37.031 0,15.821 5.387,29.29 16.25,40.469 10.821,11.25 23.75,16.871 38.75,16.871 5.7,0 12.071,-1.519 19.059,-4.531 8.828,-3.668 13.281,-8.051 13.281,-13.129 0,-1.789 -0.621,-3.359 -1.871,-4.68 -0.629,-2.5 -1.18,-6.57 -1.57,-12.191 -0.309,-5.629 -0.539,-12.891 -0.621,-21.719 -0.117,-8.121 0.472,-14.531 1.722,-19.218 0.618,-2.813 2.649,-8.551 6.09,-17.192 0.391,-1.172 1.129,-2.89 2.188,-5.148 l 0.621,-1.723 c 0,-2.578 -0.93,-4.73 -2.809,-6.41 -1.801,-1.641 -3.871,-2.5 -6.25,-2.5 z m -20.312,67.82 c 0,2.813 0.152,5.821 0.472,9.063 0.387,3.316 0.969,6.867 1.719,10.617 -2.43,1.25 -4.5,2.109 -6.25,2.66 -1.68,0.621 -3.051,0.941 -4.07,0.941 -10.11,0 -18.86,-4.14 -26.25,-12.351 -7.301,-8.238 -10.93,-17.731 -10.93,-28.43 0,-10.75 1.871,-18.75 5.621,-24.07 3.828,-5.309 9.528,-7.969 17.028,-7.969 6.25,0 11.57,1.141 15.941,3.442 2.27,1.128 5.551,3.597 9.84,7.347 -2.11,17.262 -3.121,30.192 -3.121,38.75 z" /><path
             id="path4533"
             style="fill:#000000;fill-opacity:1;fill-rule:nonzero;stroke:none"
             d="m 531.449,102.23 c -3.437,0 -6.371,1.211 -8.75,3.59 -2.308,2.301 -3.437,5.121 -3.437,8.442 0,3.316 1.129,6.168 3.437,8.59 2.379,2.378 5.313,3.597 8.75,3.597 3.321,0 6.129,-1.219 8.43,-3.597 2.391,-2.422 3.601,-5.274 3.601,-8.59 0,-3.321 -1.21,-6.141 -3.601,-8.442 -2.301,-2.379 -5.109,-3.59 -8.43,-3.59 z" /><path
             id="path4535"
             style="fill:#000000;fill-opacity:1;fill-rule:nonzero;stroke:none"
             d="m 593.551,188.012 -1.563,-48.442 c 0,-5.23 -0.269,-12.769 -0.777,-22.66 -0.621,-6.558 -3.832,-9.84 -9.531,-9.84 -6.371,0 -9.532,3.36 -9.532,10 0,7.891 0.352,19.731 1.09,35.469 0.711,15.82 1.102,27.66 1.102,35.473 0,10.308 0.148,22.066 0.461,35.308 0.32,13.2 0.469,25 0.469,35.309 0,6.57 3.171,9.851 9.531,9.851 6.449,0 9.687,-3.281 9.687,-9.851 0,-10.309 -0.148,-22.109 -0.468,-35.309 -0.309,-13.242 -0.469,-25 -0.469,-35.308 z" /><path
             id="path4537"
             style="fill:#000000;fill-opacity:1;fill-rule:nonzero;stroke:none"
             d="m 668.789,106.762 c -14.687,0 -26.641,3.707 -35.777,11.09 -10,8.128 -15,19.527 -15,34.218 0,16.879 4.097,31.02 12.34,42.5 8.949,12.5 20.859,18.75 35.777,18.75 10.82,0 19.609,-1.84 26.41,-5.468 8.441,-4.493 12.66,-11.372 12.66,-20.622 0,-6.57 -3.719,-12.5 -11.097,-17.82 -3.243,-2.422 -10.122,-6.051 -20.622,-10.93 l -37.351,-17.66 c 3.641,-5.429 8.172,-9.531 13.601,-12.34 5.391,-2.742 11.75,-4.07 19.059,-4.07 4.449,0 9.731,0.86 15.781,2.66 7.7,2.071 12.66,4.84 14.84,8.282 2.192,3.519 4.57,5.308 7.192,5.308 2.269,0 4.296,-0.89 6.097,-2.648 1.75,-1.684 2.653,-3.672 2.653,-5.942 0,-7.191 -5.864,-13.398 -17.5,-18.59 -10,-4.46 -19.692,-6.718 -29.063,-6.718 z m -2.66,89.058 c -7.93,0 -14.527,-3.09 -19.84,-9.218 -5.309,-6.172 -9.301,-15.43 -11.879,-27.813 l 30,14.223 c 11.762,5.699 20.199,10.699 25.32,15 -5.628,5.187 -13.519,7.808 -23.601,7.808 z" /><path
             id="path4539"
             style="fill:#000000;fill-opacity:1;fill-rule:nonzero;stroke:none"
             d="m 814.18,105.199 c -4.61,0 -7.621,2.5 -9.059,7.5 -1.492,5.313 -2.82,12.852 -4.07,22.653 -1.25,9.449 -1.871,17.226 -1.871,23.277 0,1.641 0.082,4.223 0.308,7.66 0.203,3.512 0.313,6.133 0.313,7.813 0,12.187 -3.082,18.277 -9.211,18.277 -8.36,0 -15.75,-3.707 -22.192,-11.09 -3.359,-3.867 -7.929,-11.211 -13.75,-22.027 0,-24.813 -1.058,-39.492 -3.128,-44.063 -1.79,-4.07 -4.61,-6.097 -8.43,-6.097 -2.738,0 -5.078,0.898 -7.039,2.66 -1.992,1.867 -2.961,4.097 -2.961,6.718 0,0.93 0.23,2.379 0.781,4.372 0.508,1.558 0.859,6.289 1.09,14.218 l 0.309,14.532 0.32,71.718 c 0.39,8.008 0.621,13.442 0.621,16.25 0,3.321 -0.313,6.45 -0.941,9.379 -0.622,3 -0.93,6.129 -0.93,9.371 0,2.7 0.93,4.918 2.808,6.719 1.954,1.762 4.301,2.66 7.032,2.66 5.308,0 8.441,-2.898 9.371,-8.597 1.019,-6.25 1.57,-11.954 1.57,-17.032 0,-6.871 -0.242,-14.019 -0.633,-21.41 -0.429,-7.109 -0.617,-14.211 -0.617,-21.398 l 0.149,-8.602 c 5.32,7.192 10.98,12.539 17.031,16.102 6.14,3.508 12.66,5.308 19.539,5.308 10.82,0 18.199,-3.519 22.18,-10.468 2.89,-5 4.57,-13.364 5,-25 l 0.781,-18.75 1.879,-20.313 c 0.941,-7.617 2.031,-14.34 3.281,-20.16 0.309,-1.051 0.469,-1.988 0.469,-2.809 0,-2.621 -1.02,-4.769 -2.969,-6.558 -1.992,-1.883 -4.332,-2.813 -7.031,-2.813 z" /><path
             id="path4541"
             style="fill:#000000;fill-opacity:1;fill-rule:nonzero;stroke:none"
             d="m 912.891,194.57 c -1.371,0 -2.969,0.039 -4.84,0.16 -1.879,0.071 -3.52,0.149 -4.852,0.149 -1.48,0 -5.898,-0.469 -13.277,-1.399 l 1.879,-57.82 0.148,-4.211 0,-5 c 0.321,-14.301 -3.078,-21.41 -10.148,-21.41 -2.621,0 -4.922,0.859 -6.879,2.5 -1.871,1.68 -2.813,3.789 -2.813,6.41 0,2.5 0.082,6.172 0.313,11.09 0.199,5 0.308,8.672 0.308,11.09 l -2.031,57.031 c -4.801,0.199 -12.027,0.789 -21.719,1.719 -5.742,0.82 -8.589,4.07 -8.589,9.691 0,2.809 0.82,5.16 2.5,7.032 1.757,1.949 4.058,2.968 6.879,2.968 l 20.46,-1.718 c 0,3.32 -0.152,7.738 -0.46,13.277 -0.321,5.633 -0.469,9.691 -0.469,12.191 0,2.7 0.929,4.918 2.808,6.719 1.95,1.762 4.301,2.66 7.032,2.66 5.82,0 9.218,-4.808 10.16,-14.379 0.187,-2.422 0.308,-5.269 0.308,-8.59 l -0.16,-5.781 -0.148,-5.937 c 8.121,1.008 12.73,1.558 13.898,1.558 6.762,0 11.18,-0.39 13.281,-1.09 3.95,-1.25 5.942,-4.3 5.942,-9.07 0,-2.93 -0.902,-5.308 -2.652,-7.18 -1.801,-1.8 -4.071,-2.66 -6.879,-2.66 z" /><path
             id="path4543"
             style="fill:#000000;fill-opacity:1;fill-rule:nonzero;stroke:none"
             d="m 959.922,234.879 c -3.121,0 -5.863,1.101 -8.121,3.281 -2.192,2.27 -3.281,5 -3.281,8.129 0,3.121 1.089,5.781 3.281,7.973 2.258,2.187 5,3.277 8.121,3.277 3.129,0 5.777,-1.09 7.969,-3.277 2.269,-2.192 3.437,-4.852 3.437,-7.973 0,-3.129 -1.168,-5.859 -3.437,-8.129 -2.192,-2.18 -4.84,-3.281 -7.969,-3.281 z m 4.379,-79.219 c 0,-3.98 0.078,-9.84 0.308,-17.648 0.313,-7.742 0.469,-13.563 0.469,-17.5 0,-2.813 -0.898,-5.16 -2.656,-7.032 -1.801,-1.8 -4.063,-2.66 -6.871,-2.66 -2.821,0 -5.16,0.86 -7.031,2.66 -1.801,1.872 -2.661,4.219 -2.661,7.032 0,3.937 -0.121,9.758 -0.308,17.5 -0.242,7.808 -0.321,13.668 -0.321,17.648 0,6.141 0.321,13.75 0.942,22.82 0.629,9.141 0.937,16.79 0.937,22.969 0,2.891 0.86,5.231 2.661,7.031 1.871,1.872 4.21,2.809 7.031,2.809 2.808,0 5.078,-0.937 6.871,-2.809 1.758,-1.8 2.656,-4.14 2.656,-7.031 0,-6.179 -0.387,-13.828 -1.098,-22.969 -0.621,-9.07 -0.929,-16.679 -0.929,-22.82 z" /><path
             id="path4545"
             style="fill:#000000;fill-opacity:1;fill-rule:nonzero;stroke:none"
             d="m 1079.06,105.199 c -4.61,0 -7.61,2.5 -9.06,7.5 -1.48,5.313 -2.81,12.852 -4.06,22.653 -1.25,9.449 -1.88,17.226 -1.88,23.277 0,1.641 0.08,4.223 0.32,7.66 0.19,3.512 0.31,6.133 0.31,7.813 0,12.187 -3.09,18.277 -9.22,18.277 -8.36,0 -15.74,-3.707 -22.19,-11.09 -3.36,-3.867 -7.93,-11.211 -13.75,-22.027 0,-24.813 -1.05,-39.492 -3.12,-44.063 -1.8,-4.07 -4.61,-6.097 -8.44,-6.097 -2.74,0 -5.08,0.898 -7.03,2.66 -1.991,1.867 -2.971,4.097 -2.971,6.718 0,0.93 0.23,2.379 0.781,4.372 0.512,1.558 0.859,6.289 1.09,14.218 l 0.32,14.532 0.31,71.718 c 0.39,8.008 0.62,13.442 0.62,16.25 0,3.321 -0.31,6.45 -0.93,9.379 -0.629,3 -0.941,6.129 -0.941,9.371 0,2.7 0.941,4.918 2.811,6.719 1.95,1.762 4.3,2.66 7.03,2.66 5.32,0 8.44,-2.898 9.38,-8.597 1.01,-6.25 1.56,-11.954 1.56,-17.032 0,-6.871 -0.23,-14.019 -0.62,-21.41 -0.43,-7.109 -0.63,-14.211 -0.63,-21.398 l 0.16,-8.602 c 5.31,7.192 10.97,12.539 17.03,16.102 6.13,3.508 12.65,5.308 19.53,5.308 10.82,0 18.2,-3.519 22.19,-10.468 2.89,-5 4.57,-13.364 5,-25 l 0.78,-18.75 1.87,-20.313 c 0.94,-7.617 2.03,-14.34 3.28,-20.16 0.32,-1.051 0.47,-1.988 0.47,-2.809 0,-2.621 -1.01,-4.769 -2.97,-6.558 -1.99,-1.883 -4.33,-2.813 -7.03,-2.813 z" /><path
             id="path4547"
             style="fill:#000000;fill-opacity:1;fill-rule:nonzero;stroke:none"
             d="m 1158.09,106.762 c -14.69,0 -26.64,3.707 -35.79,11.09 -10,8.128 -15,19.527 -15,34.218 0,16.879 4.11,31.02 12.35,42.5 8.94,12.5 20.86,18.75 35.78,18.75 10.82,0 19.61,-1.84 26.41,-5.468 8.43,-4.493 12.65,-11.372 12.65,-20.622 0,-6.57 -3.71,-12.5 -11.09,-17.82 -3.24,-2.422 -10.12,-6.051 -20.63,-10.93 l -37.34,-17.66 c 3.63,-5.429 8.16,-9.531 13.59,-12.34 5.39,-2.742 11.76,-4.07 19.07,-4.07 4.45,0 9.72,0.86 15.78,2.66 7.69,2.071 12.65,4.84 14.84,8.282 2.19,3.519 4.57,5.308 7.19,5.308 2.26,0 4.3,-0.89 6.09,-2.648 1.76,-1.684 2.66,-3.672 2.66,-5.942 0,-7.191 -5.86,-13.398 -17.5,-18.59 -10,-4.46 -19.69,-6.718 -29.06,-6.718 z m -2.66,89.058 c -7.93,0 -14.53,-3.09 -19.84,-9.218 -5.32,-6.172 -9.3,-15.43 -11.88,-27.813 l 30,14.223 c 11.76,5.699 20.2,10.699 25.31,15 -5.62,5.187 -13.51,7.808 -23.59,7.808 z" /><path
             id="path4549"
             style="fill:#000000;fill-opacity:1;fill-rule:nonzero;stroke:none"
             d="m 1287.07,194.57 c -1.37,0 -2.97,0.039 -4.84,0.16 -1.88,0.071 -3.52,0.149 -4.85,0.149 -1.48,0 -5.9,-0.469 -13.28,-1.399 l 1.88,-57.82 0.15,-4.211 0,-5 c 0.32,-14.301 -3.08,-21.41 -10.15,-21.41 -2.62,0 -4.93,0.859 -6.88,2.5 -1.87,1.68 -2.81,3.789 -2.81,6.41 0,2.5 0.08,6.172 0.31,11.09 0.2,5 0.31,8.672 0.31,11.09 l -2.03,57.031 c -4.8,0.199 -12.03,0.789 -21.72,1.719 -5.74,0.82 -8.59,4.07 -8.59,9.691 0,2.809 0.82,5.16 2.5,7.032 1.76,1.949 4.06,2.968 6.88,2.968 l 20.46,-1.718 c 0,3.32 -0.15,7.738 -0.46,13.277 -0.32,5.633 -0.47,9.691 -0.47,12.191 0,2.7 0.93,4.918 2.81,6.719 1.95,1.762 4.3,2.66 7.03,2.66 5.82,0 9.22,-4.808 10.16,-14.379 0.19,-2.422 0.31,-5.269 0.31,-8.59 l -0.16,-5.781 -0.15,-5.937 c 8.12,1.008 12.73,1.558 13.9,1.558 6.76,0 11.17,-0.39 13.28,-1.09 3.95,-1.25 5.94,-4.3 5.94,-9.07 0,-2.93 -0.9,-5.308 -2.65,-7.18 -1.8,-1.8 -4.07,-2.66 -6.88,-2.66 z" /><path
             id="path4551"
             style="fill:#000000;fill-opacity:1;fill-rule:nonzero;stroke:none"
             d="m 1429.38,151.602 c -6.88,0 -12.82,0.976 -17.82,2.968 -5,1.95 -9.06,4.918 -12.18,8.91 -3.44,-3.441 -6.88,-6.058 -10.32,-7.82 -3.36,-1.68 -6.56,-2.5 -9.68,-2.5 -7.31,0 -14.18,2.891 -20.63,8.75 -6.37,5.942 -9.53,12.391 -9.53,19.379 0,12.07 4.73,23.051 14.22,32.973 9.45,10 20.23,15 32.34,15 2.7,0 4.92,-1.063 6.72,-3.133 1.88,-1.988 2.81,-4.367 2.81,-7.18 0,-3.988 -3.28,-6.879 -9.84,-8.75 -8.67,-2.5 -14.77,-5.32 -18.28,-8.437 -5.31,-4.692 -7.97,-11.532 -7.97,-20.473 0,-1.879 0.86,-3.711 2.66,-5.469 2.07,-1.992 4.57,-2.89 7.5,-2.66 5.7,0.199 10.97,5.469 15.78,15.789 4.37,8.942 8.2,13.43 11.56,13.43 2.81,0 5.04,-1.051 6.72,-3.117 1.64,-1.992 2.5,-4.461 2.5,-7.352 0,-1.25 -0.24,-3.199 -0.63,-5.781 -0.43,-2.609 -0.62,-4.609 -0.62,-5.93 0,-4.179 1.79,-6.84 5.47,-7.969 1.44,-0.429 4.53,-0.628 9.22,-0.628 8.94,0 15.19,2.187 18.74,6.558 3.33,3.828 5,10.32 5,19.379 0,15.941 -6.48,28.941 -19.37,39.063 -11.68,9.257 -25.63,13.91 -41.87,13.91 -18.99,0 -33.83,-7.192 -44.54,-21.563 -9.68,-12.738 -14.53,-28.75 -14.53,-48.129 0,-17.808 5.67,-32.89 17.03,-45.16 11.88,-12.73 27.07,-19.058 45.63,-19.058 5.31,0 11.29,0.976 17.97,2.968 l 17.03,6.41 c 2.89,1.008 4.76,1.559 5.62,1.559 2.58,0 4.89,-1.09 6.88,-3.277 1.95,-2.114 2.97,-4.532 2.97,-7.352 0,-6.129 -6.96,-11.129 -20.78,-15 -10.55,-2.8905 -20.32,-4.3709 -29.38,-4.3709 -9.18,0 -18.59,1.8398 -28.28,5.4729 -9.61,3.547 -17.77,8.277 -24.53,14.218 -20.24,17.379 -30.31,38.59 -30.31,63.59 0,25 6.87,45.86 20.62,62.66 14.69,18 34.22,27.032 58.6,27.032 21.95,0 40.82,-6.641 56.56,-19.852 16.44,-13.98 24.68,-31.68 24.68,-53.121 0,-14.687 -3.59,-25.937 -10.78,-33.75 -7.5,-8.129 -18.51,-12.187 -32.96,-12.187 z" /><path
             id="path4553"
             style="fill:#000000;fill-opacity:1;fill-rule:nonzero;stroke:none"
             d="m 1581.33,153.32 -2.19,-32.808 c -0.43,-13.012 -1.8,-23.6331 -4.06,-31.8831 -2.93,-10.5078 -7.62,-18.2773 -14.06,-23.2773 -7.82,-6.1328 -19.14,-9.2227 -33.91,-9.2227 -8.67,0 -15.9,0.6328 -21.72,1.8828 -8.24,1.5586 -12.34,4.9571 -12.34,10.1485 0,5.75 2.85,8.6015 8.59,8.6015 2.27,0 6.13,-0.5508 11.56,-1.7226 5.51,-1.1289 11.6,-1.5977 18.28,-1.4102 12.5,0.2422 21.14,6.25 25.94,18.1328 3.13,7.9297 4.73,20.0783 4.85,36.5583 -3.44,-6.48 -7.62,-11.371 -12.5,-14.691 -4.81,-3.199 -10.32,-4.84 -16.57,-4.84 -11.87,0 -21.52,3.981 -28.9,12.031 -7.31,8.129 -10.94,18.59 -10.94,31.41 0,17.571 5,31.75 15,42.5 10.39,11.008 24.61,16.559 42.66,16.559 6.01,0 11.09,-0.777 15.15,-2.34 4.14,-1.57 7.27,-3.91 9.38,-7.039 6.95,-0.23 10.47,-4.058 10.47,-11.558 0,-4.692 -0.71,-10.903 -2.04,-18.59 -1.48,-8.992 -2.34,-15.121 -2.65,-18.442 z m -31.25,42.34 c -12.42,0 -21.99,-4.289 -28.75,-12.808 -6.06,-7.731 -9.06,-17.461 -9.06,-29.223 0,-9.488 1.75,-16.641 5.31,-21.399 3.63,-4.691 8.98,-7.031 16.09,-7.031 6.56,0 12.97,3.672 19.22,11.09 5.63,6.871 8.79,13.633 9.53,20.313 1.33,7.07 2.81,18.128 4.38,33.128 -2.62,1.95 -5.32,3.43 -8.13,4.372 -2.81,1.019 -5.7,1.558 -8.59,1.558 z" /><path
             id="path4555"
             style="fill:#000000;fill-opacity:1;fill-rule:nonzero;stroke:none"
             d="m 1730.86,103.16 c -5.43,0 -8.56,2.891 -9.38,8.602 -1.25,7.066 -2.46,17.109 -3.59,30.148 l -3.28,30.32 c -0.63,4.45 -1.72,8.821 -3.28,13.122 -2.31,5.937 -4.77,8.91 -7.35,8.91 -2.42,0 -6.87,-2.114 -13.43,-6.25 -6.25,-3.75 -10.39,-6.801 -12.35,-9.063 0,-6.179 0.2,-12.269 0.63,-18.289 l 2.81,-26.09 c 1.25,-10.308 1.88,-18.832 1.88,-25.468 0,-2.891 -0.9,-5.313 -2.66,-7.192 -1.8,-1.871 -4.06,-2.8084 -6.88,-2.8084 -2.81,0 -5.11,0.9374 -6.87,2.8084 -1.8,1.879 -2.66,4.301 -2.66,7.192 0,7.808 -0.86,19.418 -2.5,34.847 -1.56,15.391 -2.34,27.071 -2.34,35 0,6.871 -1.02,12.223 -2.97,16.09 -4.49,-2.109 -9.06,-5.469 -13.75,-10.16 l -11.56,-12.969 c -1.06,-1.558 -2.74,-3.59 -5,-6.09 0,-3.98 -0.39,-9.769 -1.1,-17.34 -0.74,-7.621 -1.09,-13.25 -1.09,-16.878 0,-1.993 0.31,-4.762 0.94,-8.282 0.62,-3.441 0.94,-5.941 0.94,-7.5 0,-2.73 -1.02,-4.922 -2.97,-6.718 -2,-1.872 -4.34,-2.813 -7.03,-2.813 -7.31,0 -10.94,8.359 -10.94,25.16 0,3.821 0.31,9.602 0.94,17.34 0.7,7.813 1.09,13.672 1.09,17.66 0,3.43 -0.31,8.59 -0.94,15.461 -0.55,6.879 -0.78,12.07 -0.78,15.629 0,14.762 3.28,22.191 9.84,22.191 2.58,0 4.93,-1.179 7.04,-3.441 2.07,-2.187 3.12,-4.609 3.12,-7.187 0,-1.25 -0.16,-3.204 -0.47,-5.782 -0.31,-2.621 -0.47,-4.609 -0.47,-5.941 l 0.16,-10.149 c 3.44,6.95 8.44,13.282 15,18.899 6.56,5.633 12.11,8.441 16.72,8.441 10.31,0 17.34,-5.121 21.09,-15.308 3.63,4.758 7.89,8.316 12.81,10.617 5,2.391 10.67,3.601 17.04,3.601 10.82,0 18.28,-5.859 22.34,-17.5 0.7,-2.429 2.03,-11.57 3.91,-27.5 1.87,-11.179 4.21,-29.808 7.03,-55.941 0.19,-2.578 -0.71,-4.769 -2.66,-6.559 -1.87,-1.878 -4.22,-2.82 -7.03,-2.82 z" /><path
             id="path4557"
             style="fill:#000000;fill-opacity:1;fill-rule:nonzero;stroke:none"
             d="m 1837.85,104.879 c -1.25,0 -3.51,1.41 -6.72,4.223 -2.93,2.699 -5.11,5.078 -6.56,7.187 -6.25,-3.437 -11.8,-5.98 -16.56,-7.66 -4.69,-1.75 -8.67,-2.649 -11.88,-2.649 -15.23,0 -26.33,4.329 -33.28,12.969 -6.56,8 -9.84,20.352 -9.84,37.031 0,15.821 5.39,29.29 16.25,40.469 10.82,11.25 23.75,16.871 38.75,16.871 5.7,0 12.07,-1.519 19.06,-4.531 8.83,-3.668 13.28,-8.051 13.28,-13.129 0,-1.789 -0.62,-3.359 -1.87,-4.68 -0.63,-2.5 -1.18,-6.57 -1.57,-12.191 -0.31,-5.629 -0.54,-12.891 -0.62,-21.719 -0.12,-8.121 0.47,-14.531 1.72,-19.218 0.62,-2.813 2.65,-8.551 6.09,-17.192 0.39,-1.172 1.13,-2.89 2.19,-5.148 l 0.62,-1.723 c 0,-2.578 -0.93,-4.73 -2.81,-6.41 -1.8,-1.641 -3.87,-2.5 -6.25,-2.5 z m -20.31,67.82 c 0,2.813 0.16,5.821 0.47,9.063 0.39,3.316 0.97,6.867 1.72,10.617 -2.43,1.25 -4.5,2.109 -6.25,2.66 -1.68,0.621 -3.05,0.941 -4.07,0.941 -10.11,0 -18.86,-4.14 -26.25,-12.351 -7.3,-8.238 -10.93,-17.731 -10.93,-28.43 0,-10.75 1.87,-18.75 5.62,-24.07 3.83,-5.309 9.53,-7.969 17.03,-7.969 6.25,0 11.57,1.141 15.94,3.442 2.27,1.128 5.55,3.597 9.84,7.347 -2.11,17.262 -3.12,30.192 -3.12,38.75 z" /><path
             id="path4559"
             style="fill:#000000;fill-opacity:1;fill-rule:nonzero;stroke:none"
             d="m 1882.07,234.879 c -3.12,0 -5.86,1.101 -8.12,3.281 -2.19,2.27 -3.29,5 -3.29,8.129 0,3.121 1.1,5.781 3.29,7.973 2.26,2.187 5,3.277 8.12,3.277 3.13,0 5.78,-1.09 7.97,-3.277 2.26,-2.192 3.44,-4.852 3.44,-7.973 0,-3.129 -1.18,-5.859 -3.44,-8.129 -2.19,-2.18 -4.84,-3.281 -7.97,-3.281 z m 4.38,-79.219 c 0,-3.98 0.07,-9.84 0.31,-17.648 0.31,-7.742 0.47,-13.563 0.47,-17.5 0,-2.813 -0.9,-5.16 -2.66,-7.032 -1.8,-1.8 -4.06,-2.66 -6.87,-2.66 -2.82,0 -5.16,0.86 -7.04,2.66 -1.79,1.872 -2.65,4.219 -2.65,7.032 0,3.937 -0.12,9.758 -0.31,17.5 -0.24,7.808 -0.32,13.668 -0.32,17.648 0,6.141 0.32,13.75 0.94,22.82 0.63,9.141 0.94,16.79 0.94,22.969 0,2.891 0.86,5.231 2.65,7.031 1.88,1.872 4.22,2.809 7.04,2.809 2.81,0 5.07,-0.937 6.87,-2.809 1.76,-1.8 2.66,-4.14 2.66,-7.031 0,-6.179 -0.39,-13.828 -1.1,-22.969 -0.62,-9.07 -0.93,-16.679 -0.93,-22.82 z" /><path
             id="path4561"
             style="fill:#000000;fill-opacity:1;fill-rule:nonzero;stroke:none"
             d="m 1944.34,188.012 -1.57,-48.442 c 0,-5.23 -0.27,-12.769 -0.78,-22.66 -0.62,-6.558 -3.83,-9.84 -9.53,-9.84 -6.37,0 -9.53,3.36 -9.53,10 0,7.891 0.35,19.731 1.09,35.469 0.71,15.82 1.1,27.66 1.1,35.473 0,10.308 0.15,22.066 0.47,35.308 0.31,13.2 0.46,25 0.46,35.309 0,6.57 3.17,9.851 9.54,9.851 6.44,0 9.68,-3.281 9.68,-9.851 0,-10.309 -0.15,-22.109 -0.47,-35.309 -0.31,-13.242 -0.46,-25 -0.46,-35.308 z" /><path
             id="path4563"
             style="fill:#000000;fill-opacity:1;fill-rule:nonzero;stroke:none"
             d="m 1986.45,102.23 c -3.44,0 -6.37,1.211 -8.75,3.59 -2.31,2.301 -3.44,5.121 -3.44,8.442 0,3.316 1.13,6.168 3.44,8.59 2.38,2.378 5.31,3.597 8.75,3.597 3.32,0 6.13,-1.219 8.43,-3.597 2.39,-2.422 3.6,-5.274 3.6,-8.59 0,-3.321 -1.21,-6.141 -3.6,-8.442 -2.3,-2.379 -5.11,-3.59 -8.43,-3.59 z" /><path
             id="path4565"
             style="fill:#000000;fill-opacity:1;fill-rule:nonzero;stroke:none"
             d="m 2067.77,105.199 c -13.36,0 -24.45,4.02 -33.28,12.031 -9.37,8.43 -14.06,19.61 -14.06,33.59 0,13.129 4.37,26.719 13.12,40.782 9.77,15.628 20.79,23.437 32.97,23.437 6.45,0 13.6,-1.488 21.41,-4.379 10,-3.859 15,-8.551 15,-14.058 0,-2.5 -0.86,-4.762 -2.5,-6.723 -1.56,-1.867 -3.59,-2.809 -6.09,-2.809 -1.88,0 -3.56,0.551 -5,1.719 -1.37,1.133 -2.66,2.262 -3.91,3.441 -3.87,3 -10.16,4.532 -18.91,4.532 -6.56,0 -13.12,-5.942 -19.68,-17.813 -5.94,-10.859 -8.91,-20.238 -8.91,-28.129 0,-8.672 2.89,-15.429 8.75,-20.308 5.51,-4.692 12.54,-7.032 21.09,-7.032 3.95,0 8.13,1.008 12.5,3.122 l 11.41,6.097 c 1.95,1.012 3.36,1.563 4.22,1.563 2.38,0 4.45,-1.024 6.25,-2.973 1.76,-1.879 2.65,-4.059 2.65,-6.559 0,-4.691 -5.07,-9.3 -15.15,-13.75 -8.75,-3.832 -16.06,-5.781 -21.88,-5.781 z" /><path
             id="path4567"
             style="fill:#000000;fill-opacity:1;fill-rule:nonzero;stroke:none"
             d="m 2162.58,105.512 c -10.94,0 -20.31,4.058 -28.13,12.187 -8.86,8.942 -13.51,21.012 -13.9,36.25 -0.43,14.68 3.28,27.571 11.09,38.75 9.14,13.199 21.88,19.84 38.13,19.84 13,0 22.85,-5.937 29.53,-17.809 5.39,-9.691 8,-21.332 7.81,-34.851 -0.23,-14.367 -4.02,-26.719 -11.41,-37.027 -8.36,-11.563 -19.37,-17.34 -33.12,-17.34 z m 5.94,87.187 c -9.61,0.071 -17.04,-4.461 -22.35,-13.597 -4.29,-7.422 -6.4,-15.782 -6.4,-25.153 0,-9.5 2.53,-16.879 7.65,-22.187 4.38,-4.383 9.42,-6.563 15.16,-6.563 6.76,0 12.58,2.5 17.5,7.5 5.51,5.391 8.44,12.813 8.75,22.18 0.94,25.199 -5.86,37.82 -20.31,37.82 z" /><path
             id="path4569"
             style="fill:#000000;fill-opacity:1;fill-rule:nonzero;stroke:none"
             d="m 2354.69,103.16 c -5.43,0 -8.56,2.891 -9.38,8.602 -1.25,7.066 -2.46,17.109 -3.59,30.148 l -3.28,30.32 c -0.63,4.45 -1.72,8.821 -3.28,13.122 -2.31,5.937 -4.77,8.91 -7.35,8.91 -2.42,0 -6.87,-2.114 -13.43,-6.25 -6.26,-3.75 -10.4,-6.801 -12.35,-9.063 0,-6.179 0.2,-12.269 0.63,-18.289 l 2.81,-26.09 c 1.25,-10.308 1.87,-18.832 1.87,-25.468 0,-2.891 -0.89,-5.313 -2.65,-7.192 -1.8,-1.871 -4.07,-2.8084 -6.88,-2.8084 -2.81,0 -5.11,0.9374 -6.87,2.8084 -1.8,1.879 -2.66,4.301 -2.66,7.192 0,7.808 -0.86,19.418 -2.5,34.847 -1.56,15.391 -2.34,27.071 -2.34,35 0,6.871 -1.02,12.223 -2.97,16.09 -4.49,-2.109 -9.06,-5.469 -13.75,-10.16 l -11.56,-12.969 c -1.06,-1.558 -2.74,-3.59 -5,-6.09 0,-3.98 -0.39,-9.769 -1.1,-17.34 -0.74,-7.621 -1.09,-13.25 -1.09,-16.878 0,-1.993 0.31,-4.762 0.94,-8.282 0.62,-3.441 0.93,-5.941 0.93,-7.5 0,-2.73 -1.01,-4.922 -2.96,-6.718 -2,-1.872 -4.34,-2.813 -7.04,-2.813 -7.3,0 -10.93,8.359 -10.93,25.16 0,3.821 0.31,9.602 0.93,17.34 0.71,7.813 1.1,13.672 1.1,17.66 0,3.43 -0.32,8.59 -0.94,15.461 -0.55,6.879 -0.78,12.07 -0.78,15.629 0,14.762 3.28,22.191 9.84,22.191 2.58,0 4.92,-1.179 7.03,-3.441 2.07,-2.187 3.13,-4.609 3.13,-7.187 0,-1.25 -0.16,-3.204 -0.47,-5.782 -0.31,-2.621 -0.47,-4.609 -0.47,-5.941 l 0.16,-10.149 c 3.44,6.95 8.44,13.282 15,18.899 6.56,5.633 12.11,8.441 16.72,8.441 10.31,0 17.34,-5.121 21.09,-15.308 3.63,4.758 7.89,8.316 12.81,10.617 5,2.391 10.67,3.601 17.03,3.601 10.82,0 18.29,-5.859 22.35,-17.5 0.7,-2.429 2.03,-11.57 3.9,-27.5 1.88,-11.179 4.22,-29.808 7.04,-55.941 0.19,-2.578 -0.71,-4.769 -2.66,-6.559 -1.88,-1.878 -4.22,-2.82 -7.03,-2.82 z" /></g></g></g></g></svg>